<?xml version="1.0" encoding="UTF-8"?>
<svg version="1.1" xmlns="http://www.w3.org/2000/svg" width="512" height="512">
<path d="M0 0 C1.05358047 -0.00834574 2.10716093 -0.01669149 3.19266808 -0.02529013 C28.13930469 -0.06427077 53.36431721 6.4385348 71.447052 24.38217163 C72.32103638 25.27935913 73.19502075 26.17654663 74.0954895 27.10092163 C74.84572388 27.85373413 75.59595825 28.60654663 76.368927 29.38217163 C90.20321731 44.01153609 96.52942233 63.95881626 96.4079895 83.85092163 C96.40307495 84.81248169 96.3981604 85.77404175 96.39309692 86.76473999 C95.99224647 111.27006442 84.5682081 130.12225937 69.86013794 148.85238647 C68.1105775 151.08169633 66.37100809 153.31842515 64.634552 155.55795288 C61.72146047 159.3137792 58.80162822 163.06428626 55.87918091 166.81283569 C52.86595533 170.67814505 49.85528418 174.54544036 46.8454895 178.41342163 C46.25775757 179.16873169 45.67002563 179.92404175 45.06448364 180.70223999 C41.7286685 184.99208418 38.40511281 189.29084029 35.0954895 193.60092163 C28.19588044 202.58619683 21.22397831 211.51535151 14.26345825 220.45346069 C5.65456201 231.50790876 5.65456201 231.50790876 -2.9045105 242.60092163 C-9.80411956 251.58619683 -16.77602169 260.51535151 -23.73654175 269.45346069 C-32.34543799 280.50790876 -32.34543799 280.50790876 -40.9045105 291.60092163 C-47.80411956 300.58619683 -54.77602169 309.51535151 -61.73654175 318.45346069 C-63.54283422 320.7732121 -65.34878871 323.09322597 -67.1545105 325.41342163 C-68.02160645 326.52741333 -68.02160645 326.52741333 -68.90621948 327.66390991 C-73.33239176 333.35479295 -77.73000496 339.06702451 -82.11154175 344.79232788 C-83.9045105 347.10092163 -83.9045105 347.10092163 -84.9045105 348.10092163 C-83.84296706 348.10312147 -83.84296706 348.10312147 -82.75997829 348.10536575 C-65.48002585 348.14253947 -48.20028561 348.20169306 -30.92049313 348.28482437 C-22.56384428 348.32450625 -14.20728812 348.35695352 -5.85055542 348.37191772 C1.43958595 348.38499086 8.72952244 348.41209838 16.01954836 348.4555347 C19.87379541 348.47802333 23.72779098 348.49383997 27.58210945 348.49280548 C31.22252926 348.49205131 34.86239583 348.51029958 38.5026722 348.54208946 C40.44994391 348.55444514 42.39730921 348.54758384 44.34460449 348.53977966 C56.15054907 348.6768176 67.73053349 351.20212598 78.2829895 356.66342163 C78.94097534 356.99857788 79.59896118 357.33373413 80.27688599 357.67904663 C87.24290159 361.42172831 92.64463131 366.44073708 98.0954895 372.10092163 C99.09129028 373.06771851 99.09129028 373.06771851 100.10720825 374.05404663 C113.53131489 387.93065124 117.72798495 406.57365905 117.56863403 425.24813843 C116.97871434 445.40904254 108.51316024 462.77813459 94.275177 476.89779663 C78.14454894 491.09274933 59.06294967 496.1824292 38.05955505 496.29710388 C37.08793448 496.30612541 36.11631391 496.31514694 35.11525029 496.32444185 C31.87862231 496.35336827 28.64198362 496.3757069 25.40530396 496.39804077 C23.07469864 496.41750039 20.74409665 496.43736263 18.41349792 496.45759583 C12.08472658 496.51134714 5.75592326 496.55932262 -0.57290244 496.60617375 C-6.56511636 496.65132929 -12.55729632 496.70056578 -18.54947887 496.74967008 C-30.46784331 496.84717361 -42.38623808 496.94027287 -54.30465698 497.03085327 C-65.7633418 497.11794436 -77.22199869 497.20792371 -88.68063354 497.30136108 C-89.38108741 497.30707235 -90.08154127 497.31278362 -90.80322101 497.31866796 C-91.50266815 497.32437165 -92.20211529 497.33007534 -92.9227578 497.33595186 C-94.3324478 497.34744624 -95.7421378 497.35893927 -97.15182781 497.37043095 C-97.84773045 497.37610413 -98.54363308 497.38177732 -99.26062367 497.38762242 C-110.29850067 497.47747748 -121.33639999 497.56453256 -132.37430119 497.65135442 C-136.9589414 497.6874553 -141.54357637 497.72417706 -146.12821007 497.76109505 C-159.3687876 497.86702518 -172.60933106 497.96349301 -185.85012919 498.03745002 C-192.53092604 498.07591615 -199.21130997 498.13122747 -205.89186281 498.19983846 C-210.10651218 498.2402319 -214.32118043 498.26781608 -218.53594935 498.29228866 C-220.46990486 498.30616616 -222.40383201 498.32527803 -224.3376745 498.35037243 C-253.77935393 498.72458854 -279.32343986 490.57077183 -300.9045105 470.10092163 C-315.39269587 455.97046923 -324.96074456 437.30142277 -325.28536987 416.89413452 C-325.22004424 384.35924593 -308.37122155 363.3746109 -287.94747925 339.64389038 C-285.06220474 336.28949535 -282.19771988 332.91800174 -279.3420105 329.53842163 C-278.66742798 328.74008911 -278.66742798 328.74008911 -277.97921753 327.92562866 C-277.07382608 326.85378823 -276.16855232 325.78184837 -275.26339722 324.70980835 C-272.97904864 322.00519874 -270.69161542 319.30320036 -268.4045105 316.60092163 C-267.48782924 315.51760064 -266.57116257 314.43426731 -265.6545105 313.35092163 C-238.1545105 280.85092163 -238.1545105 280.85092163 -236.77902222 279.22543335 C-235.86386637 278.14382642 -234.94882699 277.06212094 -234.03390503 275.98031616 C-231.72007572 273.24474224 -229.40414579 270.51099689 -227.084198 267.78060913 C-222.85371426 262.79777816 -218.6459737 257.80389448 -214.5295105 252.72592163 C-210.36229926 247.60279096 -206.04138593 242.62497235 -201.70187378 237.64828491 C-198.53998606 234.0137296 -195.43608109 230.34580295 -192.4045105 226.60092163 C-188.28557883 221.51282958 -184.00303716 216.5808834 -179.7013855 211.64779663 C-176.53971819 208.01335664 -173.43593578 204.34562345 -170.4045105 200.60092163 C-166.82909524 196.1842322 -163.13851701 191.88311778 -159.4045105 187.60092163 C-154.91942204 182.45662109 -150.5270746 177.25852013 -146.25216675 171.93685913 C-144.42393264 169.72837667 -142.56464868 167.58485012 -140.65060425 165.45248413 C-139.813479 164.50997803 -139.813479 164.50997803 -138.95944214 163.5484314 C-137.85839314 162.31297153 -136.74718205 161.08647719 -135.62496948 159.87020874 C-133.91931761 158.00348774 -133.91931761 158.00348774 -131.9045105 155.10092163 C-132.19517956 152.94304677 -132.19517956 152.94304677 -132.9045105 151.10092163 C-133.53490014 151.09853328 -134.16528978 151.09614492 -134.81478214 151.0936842 C-150.21705682 151.0343173 -165.61915433 150.95863072 -181.02125645 150.86520672 C-188.46987548 150.82041159 -195.91844843 150.78096036 -203.36715698 150.75448608 C-209.86621435 150.73137308 -216.36512389 150.69782939 -222.86406368 150.65222007 C-226.29908714 150.62846528 -229.73396582 150.6096213 -233.16906929 150.60330772 C-260.1189183 150.5353482 -283.09431515 148.08152042 -303.6545105 128.91342163 C-312.25572684 119.82206245 -318.20077682 109.0213418 -321.9045105 97.10092163 C-322.14943237 96.31974976 -322.39435425 95.53857788 -322.646698 94.73373413 C-327.22335521 76.6151871 -323.45200209 57.49300519 -314.8263855 41.29232788 C-311.93555593 36.4919056 -308.64552581 32.26261337 -304.9045105 28.10092163 C-304.38630737 27.48990601 -303.86810425 26.87889038 -303.334198 26.24935913 C-291.29331777 12.99834018 -273.11000613 6.05676649 -255.54908895 4.95285559 C-248.5551363 4.64560282 -241.55543583 4.5403807 -234.55636597 4.41488647 C-232.19285559 4.36607598 -229.82936092 4.31649988 -227.46588135 4.26622009 C-221.06849742 4.13235496 -214.67094631 4.00936044 -208.27330542 3.88848829 C-202.23145179 3.77359762 -196.18978926 3.64925298 -190.14810325 3.52592154 C-178.15867488 3.28147465 -166.16909933 3.04522316 -154.17941284 2.81381226 C-142.60443048 2.59039465 -131.02956461 2.36189404 -119.45480347 2.12728882 C-118.74382971 2.11287929 -118.03285595 2.09846976 -117.30033754 2.08362357 C-115.86757633 2.05458119 -114.43481515 2.02553787 -113.00205398 1.99649362 C-111.94130609 1.97499122 -111.94130609 1.97499122 -110.85912895 1.95305443 C-110.15349793 1.93874823 -109.44786692 1.92444204 -108.72085314 1.90970232 C-97.61879917 1.68478887 -86.51666257 1.4640029 -75.41451307 1.24386197 C-70.76783594 1.15169992 -66.12117349 1.05881951 -61.47451401 0.96577072 C-55.17897237 0.84002167 -48.88338021 0.71714862 -42.58774185 0.59634209 C-40.29912896 0.55206171 -38.01053184 0.50695575 -35.72195435 0.46088219 C-23.81523507 0.22184284 -11.90913751 0.04940612 0 0 Z " fill="#000000" transform="translate(359.9045104980469,6.899078369140625)"/>
</svg>
